<svg xmlns="http://www.w3.org/2000/svg" style="display: none;"><symbol id="whatsapp" viewBox="0 0 102 102"><path d="M51 102C79.1665 102 102 79.1665 102 51C102 22.8335 79.1665 0 51 0C22.8335 0 0 22.8335 0 51C0 79.1665 22.8335 102 51 102Z" fill="#75B73B"/><path d="M71.7668 30.2466C68.8098 29.5071 64.4612 26.9531 61.6465 25.9293C50.6566 22.495 35.8889 25.2424 31.7676 37.9495C31.4242 38.293 30.7373 38.293 30.3938 38.293C22.1514 47.9091 27.6464 59.5859 26.9595 70.2323C26.725 73.9854 24.7516 77.304 22.2119 80.1112L43.5845 101.461C46.0058 101.814 48.4809 102 51 102C76.1884 102 97.1096 83.7386 101.252 59.7335L71.7668 30.2466Z" fill="#52891D"/><path d="M49.5727 21.6047C34.0278 22.3442 21.7609 35.2902 21.8078 50.8522C21.8221 55.592 22.9664 60.0658 24.9853 64.0195L21.886 79.0633C21.7185 79.8773 22.4524 80.59 23.2609 80.3983L38.002 76.906C41.7894 78.7928 46.0433 79.8821 50.5453 79.9509C66.4335 80.1937 79.6812 67.5784 80.1771 51.6959C80.7074 34.671 66.6565 20.7909 49.5727 21.6047ZM67.1623 66.9247C62.8454 71.2416 57.1051 73.6193 50.9997 73.6193C47.4249 73.6193 44.0019 72.817 40.8264 71.2354L38.774 70.2127L29.7355 72.3537L31.6378 63.1187L30.6268 61.1378C28.978 57.9093 28.1421 54.4186 28.1421 50.7617C28.1421 44.6561 30.5198 38.9164 34.8367 34.5991C39.1151 30.3203 44.9488 27.9046 51.0001 27.9046C57.1049 27.9046 62.8452 30.2822 67.1621 34.5991C71.479 38.916 73.8566 44.6563 73.8566 50.7611C73.857 56.8126 71.4409 62.6461 67.1623 66.9247Z" fill="white"/><path d="M65.1672 57.0925L59.5126 55.469C58.7697 55.2561 57.9688 55.467 57.4272 56.0189L56.0442 57.4274C55.4613 58.0218 54.5767 58.2125 53.805 57.9003C51.13 56.8177 45.5031 51.8146 44.0669 49.3128C43.6518 48.5908 43.7205 47.6887 44.2297 47.0293L45.4366 45.4677C45.9095 44.8561 46.0091 44.0339 45.6966 43.3267L43.3177 37.9462C42.7479 36.6576 41.1012 36.2823 40.0252 37.1923C38.4472 38.5273 36.5747 40.5551 36.3474 42.8023C35.946 46.7642 37.6453 51.758 44.0695 57.7547C51.4918 64.6831 57.4359 65.5977 61.3065 64.6604C63.5017 64.1291 65.256 61.9978 66.3625 60.2525C67.1177 59.0617 66.5209 57.4815 65.1672 57.0925Z" fill="white"/><path d="M70.9225 29.4262L66.4952 33.964C66.7205 34.1722 66.9449 34.3816 67.1628 34.5997C71.4799 38.9166 73.8574 44.6569 73.8574 50.7617C73.8574 56.813 71.4412 62.6463 67.1628 66.9252C62.8459 71.242 57.1057 73.6197 51.0002 73.6197C47.4254 73.6197 44.0026 72.8174 40.8269 71.2358L38.7745 70.2131L29.736 72.3541L29.9228 71.447L21.9194 79.6493C22.0959 80.1798 22.6575 80.5408 23.261 80.3979L38.0022 76.9056C41.7895 78.7924 46.0434 79.8817 50.5454 79.9505C66.4337 80.1933 79.6817 67.578 80.1772 51.6955C80.4511 42.9032 76.8357 34.9499 70.9225 29.4262Z" fill="#D1D1D1"/><path d="M65.1675 57.0925L59.5129 55.469C58.77 55.2561 57.9691 55.467 57.4274 56.0189L56.0445 57.4274C55.4615 58.0218 54.577 58.2125 53.8052 57.9003C52.2601 57.275 49.731 55.3413 47.5926 53.3374L43.6616 57.3666C43.7965 57.4957 43.931 57.6246 44.07 57.7547C51.4923 64.6831 57.4364 65.5977 61.307 64.6604C63.5022 64.1291 65.2565 61.9978 66.363 60.2525C67.118 59.0618 66.5212 57.4815 65.1675 57.0925Z" fill="#D1D1D1"/></symbol><symbol id="vault" viewBox="0 0 124 124"><path d="M103.955 10.8984H20.044C18.6022 10.9002 17.2199 11.4738 16.2004 12.4933C15.1808 13.5129 14.6073 14.8952 14.6055 16.337V100.247C14.6074 101.679 15.173 103.052 16.1799 104.069C17.1867 105.086 18.5537 105.666 19.9849 105.683V111.406C19.9852 111.856 20.1639 112.287 20.4818 112.605C20.7996 112.923 21.2307 113.101 21.6802 113.102H33.2152C33.6647 113.101 34.0958 112.923 34.4136 112.605C34.7315 112.287 34.9102 111.856 34.9105 111.406V105.691H89.0888V111.406C89.089 111.856 89.2677 112.287 89.5856 112.605C89.9035 112.923 90.3345 113.101 90.7841 113.102H102.319C102.769 113.101 103.2 112.923 103.517 112.605C103.835 112.287 104.014 111.856 104.014 111.406V105.683C105.446 105.666 106.813 105.086 107.819 104.069C108.826 103.052 109.392 101.679 109.394 100.247V16.337C109.392 14.8952 108.818 13.5129 107.799 12.4933C106.779 11.4738 105.397 10.9002 103.955 10.8984ZM31.5198 109.711H23.3756V105.691H31.5198V109.711ZM92.4794 109.711V105.691H100.624V109.716L92.4794 109.711ZM106.003 100.247C106.003 100.79 105.787 101.311 105.403 101.695C105.019 102.079 104.498 102.295 103.955 102.295H20.044C19.501 102.295 18.9804 102.079 18.5965 101.695C18.2125 101.311 17.9966 100.79 17.9961 100.247V16.337C17.9966 15.794 18.2125 15.2734 18.5965 14.8895C18.9804 14.5055 19.501 14.2896 20.044 14.2891H103.955C104.498 14.2896 105.019 14.5055 105.403 14.8895C105.787 15.2734 106.003 15.794 106.003 16.337V100.247Z" fill="white"/><path d="M76.7311 43.8214C76.6947 43.7714 76.6556 43.7236 76.6138 43.678C76.5687 43.6369 76.5215 43.5981 76.4724 43.5618C72.616 39.7578 67.417 37.6251 62.0002 37.6251C56.5835 37.6251 51.3845 39.7578 47.5281 43.5618C47.479 43.5981 47.4318 43.6369 47.3866 43.678C47.3449 43.7236 47.3058 43.7714 47.2694 43.8214C43.4644 47.6776 41.3311 52.8771 41.3311 58.2945C41.3311 63.7119 43.4644 68.9114 47.2694 72.7676C47.3047 72.8158 47.3426 72.862 47.3828 72.9062C47.4263 72.9457 47.4719 72.9829 47.5194 73.0176C51.3759 76.8249 56.5771 78.9598 61.9964 78.9598C67.4157 78.9598 72.6168 76.8249 76.4734 73.0176C76.5209 72.9829 76.5665 72.9457 76.61 72.9062C76.6502 72.862 76.688 72.8158 76.7233 72.7676C80.5283 68.9114 82.6617 63.7119 82.6617 58.2945C82.6617 52.8771 80.5283 47.6776 76.7233 43.8214H76.7311ZM75.3496 69.2443L72.2264 66.121C73.5995 64.336 74.478 62.2205 74.7732 59.9879H79.1907C78.8582 63.3864 77.521 66.6088 75.3496 69.2443ZM44.8098 59.9879H49.2273C49.5225 62.2205 50.401 64.336 51.7741 66.121L48.6509 69.2443C46.4795 66.6088 45.1423 63.3864 44.8098 59.9879ZM48.6509 47.3399L51.7741 50.4641C50.401 52.2492 49.5225 54.3646 49.2273 56.5973H44.8098C45.1425 53.1985 46.4797 49.9758 48.6509 47.3399ZM62.0002 67.7989C60.1198 67.7991 58.2815 67.2416 56.7179 66.197C55.1543 65.1524 53.9356 63.6676 53.2159 61.9303C52.4961 60.1931 52.3078 58.2814 52.6746 56.4371C53.0414 54.5927 53.9469 52.8986 55.2766 51.5689C56.6063 50.2392 58.3004 49.3337 60.1447 48.9669C61.9891 48.6001 63.9007 48.7885 65.638 49.5082C67.3753 50.2279 68.8601 51.4466 69.9047 53.0102C70.9493 54.5738 71.5068 56.4121 71.5066 58.2926C71.5038 60.8129 70.5013 63.2293 68.7191 65.0114C66.937 66.7936 64.5206 67.7961 62.0002 67.7989ZM69.8287 48.0664C68.0436 46.6933 65.9282 45.8149 63.6956 45.5196V41.1011C67.0943 41.4346 70.3169 42.7721 72.9529 44.9432L69.8287 48.0664ZM60.3049 45.5196C58.0723 45.8149 55.9568 46.6933 54.1718 48.0664L51.0476 44.9432C53.6836 42.7721 56.9062 41.4346 60.3049 41.1011V45.5196ZM54.1708 68.5187C55.9566 69.8913 58.0721 70.7696 60.3049 71.0655V75.483C56.9063 75.1501 53.6836 73.8129 51.0476 71.6419L54.1708 68.5187ZM63.6956 71.0655C65.9283 70.7696 68.0439 69.8913 69.8297 68.5187L72.9529 71.6419C70.3169 73.8129 67.0942 75.1501 63.6956 75.483V71.0655ZM74.7732 56.5973C74.478 54.3646 73.5995 52.2492 72.2264 50.4641L75.3496 47.3399C77.5208 49.9758 78.858 53.1985 79.1907 56.5973H74.7732Z" fill="white"/><path d="M62.0003 54.2084C61.1925 54.2084 60.4028 54.4479 59.7312 54.8967C59.0595 55.3455 58.536 55.9834 58.2269 56.7297C57.9178 57.476 57.8369 58.2972 57.9945 59.0894C58.1521 59.8817 58.5411 60.6094 59.1123 61.1806C59.6835 61.7518 60.4112 62.1408 61.2035 62.2984C61.9957 62.456 62.8169 62.3751 63.5632 62.066C64.3095 61.7569 64.9474 61.2334 65.3962 60.5617C65.845 59.8901 66.0845 59.1004 66.0845 58.2926C66.0835 57.2097 65.6529 56.1715 64.8871 55.4058C64.1214 54.64 63.0832 54.2094 62.0003 54.2084ZM62.0003 58.9863C61.8631 58.9863 61.729 58.9456 61.6149 58.8694C61.5008 58.7931 61.4119 58.6848 61.3594 58.5581C61.3069 58.4313 61.2932 58.2919 61.32 58.1573C61.3467 58.0228 61.4128 57.8992 61.5098 57.8022C61.6068 57.7052 61.7304 57.6391 61.8649 57.6123C61.9995 57.5856 62.139 57.5993 62.2657 57.6518C62.3924 57.7043 62.5008 57.7932 62.577 57.9073C62.6532 58.0213 62.6939 58.1554 62.6939 58.2926C62.6936 58.4765 62.6205 58.6528 62.4904 58.7828C62.3604 58.9128 62.1841 58.986 62.0003 58.9863Z" fill="white"/><path d="M100.75 50.2945H99.5386V25.5159C99.5383 25.0663 99.3596 24.6353 99.0418 24.3174C98.7239 23.9995 98.2928 23.8208 97.8433 23.8206H26.1558C25.7063 23.8208 25.2752 23.9995 24.9573 24.3174C24.6394 24.6353 24.4607 25.0663 24.4605 25.5159V31.31C23.4211 31.6645 22.5186 32.3349 21.8789 33.2275C21.2392 34.1201 20.8943 35.1902 20.8926 36.2884V43.522C20.8943 44.6202 21.2392 45.6903 21.8789 46.5829C22.5186 47.4755 23.4211 48.1459 24.4605 48.5004V68.0847C23.4212 68.439 22.5187 69.1093 21.879 70.0017C21.2393 70.8941 20.8944 71.9641 20.8926 73.0621V80.2958C20.8943 81.3939 21.2392 82.464 21.8789 83.3566C22.5186 84.2492 23.4211 84.9196 24.4605 85.2742V91.0683C24.4607 91.5178 24.6394 91.9489 24.9573 92.2667C25.2752 92.5846 25.7063 92.7633 26.1558 92.7636H97.8433C98.2928 92.7633 98.7239 92.5846 99.0418 92.2667C99.3596 91.9489 99.5383 91.5178 99.5386 91.0683V66.2896H100.75C101.199 66.2893 101.63 66.1106 101.948 65.7928C102.266 65.4749 102.445 65.0438 102.445 64.5943V51.9899C102.445 51.5403 102.266 51.1093 101.948 50.7914C101.63 50.4735 101.199 50.2948 100.75 50.2945ZM99.0542 62.899H94.2512V53.6852H99.0504L99.0542 62.899ZM24.2871 36.2884C24.2871 35.7917 24.4844 35.3154 24.8355 34.9642C25.1867 34.6131 25.663 34.4158 26.1597 34.4158C26.6563 34.4158 27.1326 34.6131 27.4838 34.9642C27.835 35.3154 28.0323 35.7917 28.0323 36.2884V43.522C28.032 44.0181 27.835 44.4938 27.4845 44.8448C27.134 45.1959 26.6586 45.3936 26.1626 45.3946H26.1558C25.6596 45.3936 25.1841 45.1959 24.8335 44.8449C24.4828 44.4939 24.2857 44.0182 24.2851 43.522L24.2871 36.2884ZM24.2871 73.0621C24.2871 72.5655 24.4844 72.0892 24.8355 71.738C25.1867 71.3868 25.663 71.1895 26.1597 71.1895C26.6563 71.1895 27.1326 71.3868 27.4838 71.738C27.835 72.0892 28.0323 72.5655 28.0323 73.0621V80.2958C28.0323 80.7924 27.835 81.2687 27.4838 81.6199C27.1326 81.9711 26.6563 82.1684 26.1597 82.1684C25.663 82.1684 25.1867 81.9711 24.8355 81.6199C24.4844 81.2687 24.2871 80.7924 24.2871 80.2958V73.0621ZM96.1441 89.3729H27.855V85.2742C28.8943 84.9196 29.7969 84.2492 30.4366 83.3566C31.0763 82.464 31.4211 81.3939 31.4229 80.2958V73.0621C31.4209 71.9641 31.076 70.8942 30.4363 70.0018C29.7966 69.1094 28.8942 68.4392 27.855 68.0847V48.5004C28.8943 48.1459 29.7969 47.4755 30.4366 46.5829C31.0763 45.6903 31.4211 44.6202 31.4229 43.522V36.2884C31.4212 35.1903 31.0764 34.1203 30.4367 33.2278C29.797 32.3354 28.8943 31.6652 27.855 31.3109V27.2112H96.1441V50.2945H92.5597C92.1101 50.2945 91.6789 50.4732 91.361 50.7911C91.043 51.109 90.8644 51.5402 90.8644 51.9899V64.5943C90.8644 65.0439 91.043 65.4751 91.361 65.793C91.6789 66.111 92.1101 66.2896 92.5597 66.2896H96.1441V89.3729Z" fill="white"/></symbol><symbol id="smart-tv" viewBox="0 0 70 70"><g clip-path="url(#clip0)"><path d="M66.5688 9.41821H3.43123C1.53932 9.41821 0 10.9571 0 12.849V51.4877C0 53.3796 1.53932 54.9186 3.43123 54.9186H31.2632V58.6901H24.4787C23.9561 58.6901 23.5327 59.1138 23.5327 59.6361C23.5327 60.1584 23.9561 60.5821 24.4787 60.5821H45.5212C46.0437 60.5821 46.4671 60.1584 46.4671 59.6361C46.4671 59.1138 46.0437 58.6901 45.5212 58.6901H38.7364V54.9186H66.5689C68.4608 54.9186 70.0001 53.3796 70.0001 51.4877V12.849C70 10.9571 68.4607 9.41821 66.5688 9.41821ZM3.43123 11.31H66.5688C67.4177 11.31 68.1081 12.0004 68.1081 12.849V44.1196H1.89191V12.849C1.89191 12.0004 2.58234 11.31 3.43123 11.31ZM36.8443 58.6901H33.1551V54.9186H36.8443V58.6901ZM66.5688 53.0267H3.43123C2.58234 53.0267 1.89191 52.3363 1.89191 51.4877V46.0115H68.1081V51.4877C68.1081 52.3363 67.4178 53.0267 66.5688 53.0267ZM44.7621 49.4443C44.7621 49.9665 44.3387 50.3902 43.8162 50.3902H26.184C25.6614 50.3902 25.238 49.9665 25.238 49.4443C25.238 48.922 25.6614 48.4983 26.184 48.4983H43.8162C44.3387 48.4983 44.7621 48.922 44.7621 49.4443ZM24.8894 33.3841C23.4347 33.3841 22.2511 34.5678 22.2511 36.0223C22.2511 37.4769 23.4348 38.6606 24.8894 38.6606C26.3441 38.6606 27.5276 37.4769 27.5276 36.0223C27.5276 34.5678 26.3441 33.3841 24.8894 33.3841ZM24.8894 36.7688C24.4777 36.7688 24.143 36.4338 24.143 36.0225C24.143 35.6108 24.4777 35.2761 24.8894 35.2761C25.301 35.2761 25.6357 35.6108 25.6357 36.0225C25.6359 36.4338 25.3012 36.7688 24.8894 36.7688ZM11.7225 23.5603C11.353 23.1911 11.353 22.5919 11.7225 22.2226C18.9829 14.9623 30.7962 14.9623 38.0564 22.2226C38.4259 22.5917 38.4259 23.191 38.0564 23.5603C37.8716 23.745 37.6295 23.8374 37.3875 23.8374C37.1455 23.8374 36.9034 23.745 36.7187 23.5603C30.1963 17.0378 19.5826 17.0378 13.0601 23.5603C12.6906 23.9298 12.092 23.9298 11.7225 23.5603ZM33.9686 26.3104C34.3381 26.6795 34.3381 27.2785 33.9686 27.648C33.7839 27.8327 33.5418 27.9251 33.2998 27.9251C33.0578 27.9251 32.8156 27.8327 32.6309 27.648C28.3624 23.3795 21.4163 23.3795 17.1478 27.648C16.7783 28.0176 16.1797 28.0176 15.8102 27.648C15.4406 27.2785 15.4406 26.6796 15.8102 26.3104C20.8165 21.3041 28.9624 21.3041 33.9686 26.3104ZM29.8806 30.3981C30.2501 30.7677 30.2501 31.3665 29.8806 31.7358C29.6959 31.9205 29.4537 32.0129 29.2117 32.0129C28.9697 32.0129 28.7276 31.9205 28.5429 31.7358C27.5671 30.76 26.2696 30.2223 24.8894 30.2223C23.5092 30.2223 22.2116 30.7599 21.2358 31.7358C20.867 32.1053 20.2677 32.1053 19.8982 31.7358C19.5286 31.3666 19.5286 30.7677 19.8982 30.3981C21.2312 29.0648 23.0039 28.3304 24.8894 28.3304C26.7749 28.3304 28.5476 29.0648 29.8806 30.3981ZM48.8328 22.4837H52.6567C53.1792 22.4837 53.6026 22.0603 53.6026 21.5378V17.7143C53.6026 17.1918 53.1792 16.7683 52.6567 16.7683H48.8328C48.3103 16.7683 47.8868 17.1918 47.8868 17.7143V21.5378C47.887 22.0603 48.3103 22.4837 48.8328 22.4837ZM49.7788 18.6603H51.7107V20.5918H49.7788V18.6603ZM55.6352 19.6262C55.6352 19.1036 56.0587 18.6802 56.5812 18.6802H63.7697C64.2923 18.6802 64.7157 19.1036 64.7157 19.6262C64.7157 20.1487 64.2923 20.5721 63.7697 20.5721H56.5812C56.0587 20.5721 55.6352 20.1487 55.6352 19.6262ZM48.8328 30.5724H52.6567C53.1792 30.5724 53.6026 30.149 53.6026 29.6265V25.803C53.6026 25.2805 53.1792 24.857 52.6567 24.857H48.8328C48.3103 24.857 47.8868 25.2805 47.8868 25.803V29.6265C47.887 30.149 48.3103 30.5724 48.8328 30.5724ZM49.7788 26.7488H51.7107V28.6804H49.7788V26.7488ZM55.6352 27.7149C55.6352 27.1923 56.0587 26.7689 56.5812 26.7689H63.7697C64.2923 26.7689 64.7157 27.1923 64.7157 27.7149C64.7157 28.2374 64.2923 28.6608 63.7697 28.6608H56.5812C56.0587 28.6608 55.6352 28.2374 55.6352 27.7149ZM48.8328 38.6607H52.6567C53.1792 38.6607 53.6026 38.237 53.6026 37.7148V33.8916C53.6026 33.369 53.1792 32.9456 52.6567 32.9456H48.8328C48.3103 32.9456 47.8868 33.369 47.8868 33.8916V37.7148C47.887 38.237 48.3103 38.6607 48.8328 38.6607ZM49.7788 34.8375H51.7107V36.7688H49.7788V34.8375ZM55.6352 35.8032C55.6352 35.2806 56.0587 34.8572 56.5812 34.8572H63.7697C64.2923 34.8572 64.7157 35.2806 64.7157 35.8032C64.7157 36.3254 64.2923 36.7491 63.7697 36.7491H56.5812C56.0587 36.7491 55.6352 36.3254 55.6352 35.8032Z" fill="#212121"/></g><defs><clipPath id="clip0"><rect width="70" height="70" fill="white"/></clipPath></defs></symbol><symbol id="protection" viewBox="0 0 136 136"><path d="M16.6648 114.452C16.6648 115.015 16.8887 115.556 17.2872 115.954C17.6857 116.353 18.2262 116.577 18.7898 116.577H44.2898C44.8534 116.577 45.3939 116.353 45.7924 115.954C46.191 115.556 46.4148 115.015 46.4148 114.452C46.4148 100.214 28.9898 83.1078 25.1648 79.5166V72.2703L37.6173 74.0766C37.9203 74.1194 38.2289 74.0963 38.5221 74.0089C38.8154 73.9215 39.0862 73.7718 39.3162 73.57C39.5463 73.3682 39.73 73.1192 39.8549 72.8398C39.9798 72.5605 40.0428 72.2575 40.0398 71.9516V58.6066L44.9698 57.0766C45.2707 56.9759 45.5452 56.8091 45.7732 56.5885C46.0011 56.3678 46.1768 56.0989 46.2873 55.8016C46.3974 55.5036 46.4392 55.1848 46.4098 54.8685C46.3804 54.5522 46.2805 54.2466 46.1173 53.9741L40.0398 43.7316C39.9027 37.875 37.7533 32.2443 33.953 27.7861C30.1527 23.3279 24.9333 20.3142 19.1723 19.2516C18.8933 19.2013 18.6071 19.2066 18.33 19.2669C18.053 19.3273 17.7905 19.4417 17.5577 19.6035C17.3249 19.7653 17.1262 19.9714 16.973 20.21C16.8198 20.4486 16.7151 20.715 16.6648 20.9941C16.6146 21.2731 16.6198 21.5593 16.6802 21.8364C16.7406 22.1134 16.8549 22.3759 17.0168 22.6087C17.1786 22.8415 17.3846 23.0402 17.6232 23.1934C17.8618 23.3466 18.1283 23.4513 18.4073 23.5016C23.2775 24.403 27.6799 26.9773 30.8537 30.7797C34.0276 34.5821 35.7735 39.3737 35.7898 44.3266C35.7899 44.708 35.8927 45.0823 36.0873 45.4103L41.1023 53.7828L37.2348 55.0578C36.8128 55.2004 36.4462 55.472 36.1869 55.8342C35.9276 56.1965 35.7887 56.6311 35.7898 57.0766V69.5078L23.3373 67.7016C23.0344 67.6587 22.7257 67.6818 22.4325 67.7692C22.1393 67.8566 21.8684 68.0064 21.6384 68.2081C21.4084 68.4099 21.2247 68.659 21.0998 68.9383C20.9749 69.2176 20.9118 69.5206 20.9148 69.8266V80.4516C20.9155 80.7481 20.9783 81.0412 21.0991 81.312C21.2198 81.5828 21.3959 81.8254 21.6161 82.0241C21.8073 82.2153 40.1461 98.8753 42.0161 112.327H18.7898C18.2262 112.327 17.6857 112.55 17.2872 112.949C16.8887 113.347 16.6648 113.888 16.6648 114.452Z" fill="white"/><path d="M116.875 114.75C116.875 115.314 116.651 115.854 116.252 116.253C115.854 116.651 115.313 116.875 114.75 116.875H89.2498C88.6862 116.875 88.1457 116.651 87.7472 116.253C87.3487 115.854 87.1248 115.314 87.1248 114.75C87.1248 100.513 104.55 83.4063 108.375 79.815V72.5688L95.9223 74.375C95.6194 74.4179 95.3107 74.3948 95.0175 74.3074C94.7243 74.2199 94.4534 74.0702 94.2234 73.8684C93.9934 73.6667 93.8097 73.4176 93.6848 73.1383C93.5599 72.859 93.4968 72.556 93.4998 72.25V58.905L88.5698 57.375C88.2689 57.2743 87.9944 57.1075 87.7664 56.8869C87.5384 56.6663 87.3628 56.3974 87.2523 56.1C87.1422 55.8021 87.1004 55.4832 87.1298 55.167C87.1592 54.8507 87.2591 54.5451 87.4223 54.2725L93.4998 44.03C93.637 38.1735 95.7864 32.5428 99.5867 28.0846C103.387 23.6264 108.606 20.6126 114.367 19.55C114.646 19.4998 114.933 19.505 115.21 19.5654C115.487 19.6258 115.749 19.7401 115.982 19.9019C116.215 20.0638 116.414 20.2698 116.567 20.5084C116.72 20.747 116.825 21.0135 116.875 21.2925C116.925 21.5716 116.92 21.8578 116.859 22.1348C116.799 22.4119 116.685 22.6743 116.523 22.9072C116.361 23.14 116.155 23.3387 115.916 23.4919C115.678 23.6451 115.411 23.7498 115.132 23.8C110.262 24.7014 105.86 27.2757 102.686 31.0781C99.5121 34.8805 97.7662 39.6721 97.7498 44.625C97.7497 45.0064 97.647 45.3808 97.4523 45.7088L92.4373 54.0813L96.3048 55.3563C96.7269 55.4988 97.0935 55.7704 97.3528 56.1327C97.6121 56.4949 97.751 56.9295 97.7498 57.375V69.8063L110.202 68C110.505 67.9572 110.814 67.9802 111.107 68.0677C111.4 68.1551 111.671 68.3048 111.901 68.5066C112.131 68.7083 112.315 68.9574 112.44 69.2367C112.565 69.516 112.628 69.8191 112.625 70.125V80.75C112.624 81.0465 112.561 81.3396 112.441 81.6105C112.32 81.8813 112.144 82.1238 111.924 82.3225C111.732 82.5138 93.3936 99.1739 91.5236 112.625H114.75C115.313 112.625 115.854 112.849 116.252 113.248C116.651 113.646 116.875 114.187 116.875 114.75ZM80.7498 74.375C79.4889 74.375 78.2563 74.0011 77.208 73.3006C76.1596 72.6001 75.3425 71.6045 74.86 70.4396C74.3775 69.2747 74.2513 67.9929 74.4973 66.7563C74.7432 65.5197 75.3504 64.3838 76.2419 63.4922C77.1335 62.6006 78.2694 61.9935 79.5061 61.7475C80.7427 61.5015 82.0245 61.6278 83.1894 62.1103C84.3542 62.5928 85.3499 63.4099 86.0504 64.4583C86.7509 65.5066 87.1248 66.7392 87.1248 68C87.1248 69.6908 86.4531 71.3123 85.2576 72.5078C84.062 73.7034 82.4405 74.375 80.7498 74.375ZM82.8748 68C82.8748 67.5797 82.7501 67.1689 82.5166 66.8194C82.2831 66.47 81.9512 66.1976 81.563 66.0368C81.1747 65.8759 80.7474 65.8339 80.3352 65.9158C79.923 65.9978 79.5443 66.2002 79.2471 66.4974C78.95 66.7946 78.7476 67.1732 78.6656 67.5854C78.5836 67.9976 78.6257 68.4249 78.7865 68.8132C78.9473 69.2015 79.2197 69.5334 79.5692 69.7669C79.9186 70.0004 80.3295 70.125 80.7498 70.125C81.3134 70.125 81.8539 69.9011 82.2524 69.5026C82.6509 69.1041 82.8748 68.5636 82.8748 68ZM67.9997 60.5625C68.6302 60.5625 69.2465 60.7495 69.7706 61.0997C70.2948 61.45 70.7034 61.9478 70.9446 62.5302C71.1859 63.1127 71.249 63.7536 71.126 64.3719C71.003 64.9902 70.6994 65.5581 70.2537 66.0039C69.8079 66.4497 69.2399 66.7533 68.6216 66.8763C68.0033 66.9993 67.3624 66.9361 66.7799 66.6949C66.1975 66.4536 65.6997 66.0451 65.3494 65.5209C64.9992 64.9967 64.8123 64.3804 64.8123 63.75C64.8123 62.9046 65.1481 62.0939 65.7458 61.4961C66.3436 60.8983 67.1544 60.5625 67.9997 60.5625ZM67.9997 62.6875C67.7896 62.6875 67.5842 62.7498 67.4095 62.8666C67.2347 62.9833 67.0986 63.1493 67.0181 63.3434C66.9377 63.5376 66.9167 63.7512 66.9577 63.9573C66.9987 64.1634 67.0999 64.3527 67.2485 64.5013C67.3971 64.6499 67.5864 64.7511 67.7925 64.7921C67.9986 64.8331 68.2122 64.8121 68.4064 64.7316C68.6005 64.6512 68.7664 64.515 68.8832 64.3403C68.9999 64.1656 69.0622 63.9602 69.0622 63.75C69.0622 63.4682 68.9503 63.198 68.7511 62.9987C68.5518 62.7995 68.2815 62.6875 67.9997 62.6875ZM87.1248 83.9375C86.4943 83.9375 85.8781 83.7506 85.3539 83.4003C84.8297 83.0501 84.4212 82.5522 84.1799 81.9698C83.9387 81.3874 83.8755 80.7465 83.9985 80.1282C84.1215 79.5098 84.4251 78.9419 84.8709 78.4961C85.3167 78.0503 85.8846 77.7467 86.5029 77.6238C87.1212 77.5008 87.7621 77.5639 88.3446 77.8051C88.927 78.0464 89.4248 78.4549 89.7751 78.9791C90.1253 79.5033 90.3123 80.1196 90.3123 80.75C90.3123 81.5954 89.9764 82.4061 89.3787 83.0039C88.7809 83.6017 87.9701 83.9375 87.1248 83.9375ZM87.1248 81.8125C87.3349 81.8125 87.5403 81.7502 87.7151 81.6334C87.8898 81.5167 88.026 81.3508 88.1064 81.1566C88.1868 80.9625 88.2078 80.7488 88.1669 80.5427C88.1259 80.3366 88.0247 80.1473 87.8761 79.9987C87.7275 79.8501 87.5382 79.7489 87.3321 79.7079C87.126 79.6669 86.9123 79.688 86.7182 79.7684C86.524 79.8488 86.3581 79.985 86.2413 80.1597C86.1246 80.3344 86.0623 80.5399 86.0623 80.75C86.0623 81.0318 86.1742 81.3021 86.3735 81.5013C86.5727 81.7006 86.843 81.8125 87.1248 81.8125ZM62.6022 46.495C62.2021 46.0949 61.9773 45.5522 61.9773 44.9863C61.9773 44.4204 62.2021 43.8777 62.6022 43.4775C63.0024 43.0774 63.5451 42.8526 64.111 42.8526C64.6769 42.8526 65.2196 43.0774 65.6197 43.4775L67.1285 44.9863C67.1285 44.9863 67.2348 45.1775 67.3198 45.2838C68.1922 44.853 69.1517 44.6277 70.1247 44.625C71.0994 44.6343 72.059 44.8669 72.9298 45.305C72.9809 45.1917 73.045 45.0847 73.121 44.9863L74.6297 43.4775C75.0299 43.0774 75.5726 42.8526 76.1385 42.8526C76.7044 42.8526 77.2471 43.0774 77.6472 43.4775C78.0474 43.8777 78.2722 44.4204 78.2722 44.9863C78.2722 45.5522 78.0474 46.0949 77.6472 46.495L76.1385 48.0038C76.0401 48.0797 75.9331 48.1439 75.8197 48.195C76.2579 49.0657 76.4905 50.0253 76.4997 51C76.4905 51.9747 76.2579 52.9343 75.8197 53.805C75.9305 53.8609 76.0371 53.9248 76.1385 53.9963L77.6472 55.505C77.8464 55.7026 78.0045 55.9376 78.1124 56.1965C78.2203 56.4555 78.2758 56.7332 78.2758 57.0138C78.2758 57.2943 78.2203 57.572 78.1124 57.831C78.0045 58.0899 77.8464 58.325 77.6472 58.5225C77.4487 58.7195 77.2132 58.8753 76.9543 58.981C76.6954 59.0868 76.4181 59.1404 76.1385 59.1388C75.8588 59.1404 75.5816 59.0868 75.3227 58.981C75.0638 58.8753 74.8283 58.7195 74.6297 58.5225L73.121 57.0138C73.0498 56.9196 72.9859 56.8201 72.9298 56.7163C72.0573 57.147 71.0978 57.3724 70.1247 57.375C69.045 57.37 67.9841 57.0908 67.0418 56.5635C66.0995 56.0363 65.3064 55.2784 64.7372 54.3608C64.1679 53.4432 63.8411 52.3961 63.7873 51.3176C63.7335 50.2391 63.9546 49.1647 64.4297 48.195C64.3164 48.1439 64.2094 48.0797 64.111 48.0038L62.6022 46.495ZM67.9997 51C67.9997 51.5636 68.2236 52.1041 68.6222 52.5026C69.0207 52.9011 69.5612 53.125 70.1247 53.125C70.5226 53.1263 70.9128 53.0159 71.251 52.8063C71.5572 52.6149 71.8096 52.3486 71.9844 52.0325C72.1591 51.7165 72.2505 51.3611 72.2497 51C72.2503 50.614 72.1457 50.2351 71.9472 49.904C71.7487 49.5729 71.4637 49.3021 71.1229 49.1208C70.7821 48.9395 70.3983 48.8544 70.0128 48.8748C69.6273 48.8951 69.2546 49.0201 68.9347 49.2363C68.6464 49.4312 68.4103 49.694 68.2473 50.0015C68.0842 50.3091 67.9992 50.6519 67.9997 51ZM78.6247 82.875V87.125C78.6247 87.6886 78.4009 88.2291 78.0023 88.6276C77.6038 89.0261 77.0633 89.25 76.4997 89.25C75.9362 89.25 75.3957 89.0261 74.9971 88.6276C74.5986 88.2291 74.3747 87.6886 74.3747 87.125H71.8673L71.6123 87.7413L76.946 93.0538C77.1452 93.2513 77.3032 93.4863 77.4111 93.7453C77.519 94.0042 77.5746 94.282 77.5746 94.5625C77.5746 94.843 77.519 95.1208 77.4111 95.3797C77.3032 95.6387 77.1452 95.8737 76.946 96.0713C76.7484 96.2704 76.5134 96.4285 76.2545 96.5364C75.9955 96.6443 75.7178 96.6998 75.4372 96.6998C75.1567 96.6998 74.879 96.6443 74.62 96.5364C74.3611 96.4285 74.126 96.2704 73.9285 96.0713L68.616 90.7375L67.9997 90.9925V93.5C67.9997 94.0636 67.7759 94.6041 67.3773 95.0026C66.9788 95.4011 66.4383 95.625 65.8748 95.625C65.3112 95.625 64.7706 95.4011 64.3721 95.0026C63.9736 94.6041 63.7497 94.0636 63.7497 93.5V90.9925L63.1335 90.7375L61.3697 92.5225C61.1711 92.7195 60.9357 92.8753 60.6768 92.981C60.4179 93.0868 60.1406 93.1404 59.8609 93.1388C59.5813 93.1404 59.3041 93.0868 59.0451 92.981C58.7862 92.8753 58.5508 92.7195 58.3522 92.5225C58.153 92.325 57.9949 92.0899 57.8871 91.831C57.7792 91.572 57.7236 91.2943 57.7236 91.0138C57.7236 90.7332 57.7792 90.4555 57.8871 90.1965C57.9949 89.9376 58.153 89.7026 58.3522 89.505L60.1372 87.7413C59.7231 86.8864 59.5053 85.9498 59.4997 85C59.5034 83.6848 59.9138 82.4028 60.6747 81.33C61.4356 80.2572 62.5097 79.4459 63.7497 79.0075V76.5C63.1861 76.5 62.6456 76.2761 62.2471 75.8776C61.8486 75.4791 61.6247 74.9386 61.6247 74.375C61.6247 73.8114 61.8486 73.2709 62.2471 72.8724C62.6456 72.4739 63.1861 72.25 63.7497 72.25H67.9997C68.5633 72.25 69.1038 72.4739 69.5023 72.8724C69.9009 73.2709 70.1247 73.8114 70.1247 74.375C70.1247 74.9386 69.9009 75.4791 69.5023 75.8776C69.1038 76.2761 68.5633 76.5 67.9997 76.5V79.0075L68.616 79.2625L70.3797 77.4775C70.5779 77.2794 70.8131 77.1222 71.072 77.015C71.3308 76.9077 71.6083 76.8526 71.8885 76.8526C72.1687 76.8526 72.4462 76.9077 72.705 77.015C72.9639 77.1222 73.1991 77.2794 73.3972 77.4775C73.5954 77.6756 73.7526 77.9109 73.8598 78.1697C73.967 78.4286 74.0222 78.7061 74.0222 78.9863C74.0222 79.2665 73.967 79.5439 73.8598 79.8028C73.7526 80.0617 73.5954 80.2969 73.3972 80.495L71.6123 82.2588L71.8673 82.875H74.3747C74.3747 82.3114 74.5986 81.7709 74.9971 81.3724C75.3957 80.9739 75.9362 80.75 76.4997 80.75C77.0633 80.75 77.6038 80.9739 78.0023 81.3724C78.4009 81.7709 78.6247 82.3114 78.6247 82.875ZM63.7497 85C63.7497 85.4203 63.8743 85.8311 64.1078 86.1806C64.3413 86.53 64.6733 86.8024 65.0615 86.9632C65.4498 87.1241 65.8771 87.1662 66.2893 87.0842C66.7015 87.0022 67.0802 86.7998 67.3773 86.5026C67.6745 86.2054 67.8769 85.8268 67.9589 85.4146C68.0409 85.0024 67.9988 84.5751 67.838 84.1868C67.6772 83.7985 67.4048 83.4666 67.0553 83.2331C66.7059 82.9996 66.295 82.875 65.8748 82.875C65.3112 82.875 64.7706 83.0989 64.3721 83.4974C63.9736 83.8959 63.7497 84.4364 63.7497 85Z" fill="white"/><rect x="53.2178" y="19.5869" width="2.58696" height="96.8261" fill="white" fill-opacity="0.86"/></symbol><symbol id="medal" viewBox="0 0 124 124"><g clip-path="url(#clip0)"><path d="M77.8287 15.4505C64.1891 8.55836 47.7588 11.1936 36.9449 22.0078C24.3765 34.5759 23.1186 54.616 34.019 68.6227C34.4043 69.1177 34.9803 69.3768 35.5625 69.3768C35.982 69.3768 36.4046 69.2424 36.7613 68.9646C37.6131 68.3018 37.7662 67.0741 37.1035 66.2223C27.4114 53.7686 28.5315 35.9484 39.7087 24.7712C49.326 15.1534 63.9368 12.8095 76.0665 18.9385C77.0294 19.4258 78.205 19.0388 78.6918 18.0756C79.1784 17.1124 78.7923 15.9371 77.8287 15.4505Z" fill="white"/><path d="M93.4329 31.0579C92.9461 30.0947 91.7713 29.7082 90.8074 30.1945C89.8442 30.6811 89.4574 31.8561 89.944 32.8198C96.0687 44.9476 93.7236 59.5564 84.1085 69.1713C72.931 80.3482 55.111 81.4681 42.6572 71.7765C41.8052 71.1139 40.5778 71.2669 39.9149 72.1185C39.2521 72.9702 39.4054 74.1979 40.2572 74.8607C46.6374 79.8261 54.2689 82.2683 61.8763 82.2683C70.9697 82.2683 80.0288 78.7781 86.8723 71.9346C97.6838 61.1234 100.32 44.6962 93.4329 31.0579Z" fill="white"/><path d="M88.3834 23.6152C87.8993 23.0674 87.3907 22.5263 86.8717 22.0076C86.3527 21.4886 85.8119 20.98 85.264 20.4958C84.4554 19.7809 83.2202 19.8574 82.506 20.6661C81.7908 21.4745 81.8669 22.7094 82.6755 23.4241C83.1636 23.8552 83.6455 24.3086 84.1081 24.7709C84.5702 25.2335 85.0236 25.7152 85.4549 26.2032C85.8409 26.6401 86.3791 26.8632 86.9199 26.8632C87.3798 26.8632 87.8414 26.7017 88.2132 26.3732C89.0221 25.6588 89.0981 24.4239 88.3834 23.6152Z" fill="white"/><path d="M108.032 50.4744C109.335 48.3366 109.335 45.6813 108.032 43.544L105.461 39.3282C105.122 38.7726 104.991 38.1129 105.092 37.4706L105.859 32.6019C106.249 30.1207 105.23 27.6618 103.199 26.1842L99.2147 23.2862C98.688 22.9028 98.3135 22.3436 98.1602 21.7105L96.9999 16.9154C96.4109 14.4797 94.5318 12.6008 92.0963 12.0113L87.301 10.8508C86.6679 10.6975 86.1082 10.3231 85.7253 9.79629L82.8268 5.81109C81.3495 3.7801 78.8903 2.76025 76.4098 3.15114L71.5394 3.91742C70.8971 4.01841 70.2372 3.88763 69.6821 3.54905L65.4656 0.977501C63.328 -0.325955 60.6727 -0.325713 58.5351 0.977501L54.3191 3.54833C53.764 3.88715 53.1045 4.01745 52.4615 3.91669L47.5926 3.15041C45.1121 2.76 42.6527 3.77937 41.1753 5.81036L38.2773 9.7946C37.8939 10.3214 37.3345 10.6958 36.7012 10.8491L31.9061 12.0094C29.4709 12.5984 27.5915 14.4775 27.002 16.913L25.8414 21.7083C25.6881 22.3414 25.314 22.9011 24.787 23.284L20.8018 26.1825C18.7708 27.6596 17.7516 30.1183 18.1418 32.5995L18.9081 37.4701C19.0091 38.1127 18.8783 38.7724 18.5397 39.3275L15.9684 43.5442C14.6654 45.6818 14.6654 48.3371 15.9687 50.4744L18.5395 54.6904C18.8781 55.246 19.0091 55.9057 18.9078 56.548L18.1416 61.417C17.7509 63.8979 18.7703 66.3571 20.8013 67.8345L24.7855 70.7325C25.3123 71.1154 25.6867 71.6751 25.84 72.3082L27.0003 77.1032C27.5893 79.5389 29.4685 81.4178 31.9039 82.0073L33.9063 82.4919L20.3549 112.72C20.067 113.363 20.1466 114.11 20.5639 114.677C20.981 115.245 21.6705 115.544 22.3699 115.46L33.2737 114.156L39.5551 123.164C39.9227 123.69 40.5226 124 41.1574 124C41.2182 124 41.2797 123.997 41.3407 123.991C42.0416 123.925 42.6532 123.487 42.9411 122.845L56.781 91.9714L58.5346 93.0407C59.6034 93.6924 60.8015 94.0181 61.9999 94.0181C63.1982 94.0181 64.3963 93.6921 65.4651 93.0407L67.282 91.9329L81.1393 122.845C81.4272 123.488 82.0385 123.925 82.7396 123.991C82.8009 123.997 82.8622 124 82.923 124C83.5577 124 84.1579 123.691 84.5253 123.164L90.8067 114.157L101.71 115.46C102.409 115.543 103.099 115.245 103.516 114.678C103.934 114.111 104.014 113.363 103.725 112.721L90.1671 82.4754L92.0941 82.0092C94.5293 81.4202 96.4087 79.5411 96.9982 77.1057L98.1588 72.3103C98.3121 71.6773 98.6865 71.1176 99.2133 70.7347L103.198 67.8362C105.229 66.359 106.249 63.9004 105.858 61.4191L105.092 56.5485C104.991 55.906 105.122 55.2463 105.46 54.6912L108.032 50.4744ZM40.7866 118.097L35.8087 110.959C35.396 110.367 34.6903 110.05 33.9739 110.137L25.3328 111.17L37.6794 83.6275C37.9051 83.7934 38.1075 83.9923 38.2744 84.2221L41.1729 88.2073C41.4483 88.5859 41.7578 88.929 42.0952 89.2347L35.5965 103.731C35.1553 104.716 35.5956 105.872 36.5803 106.314C36.8399 106.43 37.1114 106.485 37.3783 106.485C38.1247 106.485 38.8377 106.055 39.1625 105.33L45.6381 90.8849C46.2753 90.9724 46.9314 90.9709 47.5899 90.8673L52.4603 90.101C52.7519 90.0552 53.0467 90.0593 53.3337 90.1068L40.7866 118.097ZM98.748 111.169L90.1068 110.137C89.3896 110.051 88.6846 110.367 88.2719 110.959L83.294 118.097L70.7416 90.0959C71.0049 90.0601 71.2735 90.0601 71.5392 90.1017L76.4079 90.868C77.093 90.9758 77.7757 90.9724 78.4372 90.8738L84.9176 105.33C85.2429 106.056 85.9554 106.486 86.7018 106.486C86.969 106.486 87.2405 106.431 87.4998 106.314C88.4846 105.873 88.9251 104.717 88.4836 103.732L81.9603 89.1799C82.2749 88.8879 82.5657 88.5645 82.8251 88.208L85.7231 84.2238C85.9058 83.9727 86.1295 83.7574 86.3809 83.5832L98.748 111.169ZM104.695 48.4396L102.124 52.6563C101.304 54.0014 100.987 55.5994 101.231 57.1557L101.998 62.0261C102.159 63.0503 101.738 64.0653 100.9 64.6751L96.9142 67.5739C95.6386 68.5019 94.7313 69.8575 94.3603 71.3907L93.1997 76.1861C92.9563 77.1914 92.1808 77.9671 91.1753 78.2105L86.38 79.3708C84.8464 79.7419 83.4907 80.6491 82.5626 81.925L79.6646 85.9092C79.0547 86.7479 78.04 87.1683 77.0153 87.007L72.1463 86.2407C70.5898 85.9959 68.9916 86.3127 67.6462 87.133L63.4305 89.7038C62.5482 90.2415 61.4516 90.2415 60.5697 89.7038L56.353 87.1327C55.3043 86.4931 54.1021 86.1599 52.8856 86.1599C52.5417 86.1599 52.1961 86.1865 51.8534 86.2405L46.9828 87.0068C45.9583 87.1681 44.9435 86.7469 44.3337 85.9087L41.435 81.9235C40.5069 80.6479 39.1514 79.7407 37.6181 79.3696L32.8228 78.2091C31.8174 77.9657 31.0417 77.1902 30.7983 76.1846L29.638 71.3895C29.267 69.856 28.36 68.5 27.0839 67.5719L23.0999 64.6737C22.2614 64.0638 21.8407 63.0486 22.002 62.0244L22.7683 57.1554C23.0132 55.5989 22.6964 54.0009 21.8761 52.6556L19.3053 48.4393C18.7674 47.557 18.7674 46.4606 19.3053 45.5786L21.8766 41.3619C22.6966 40.0167 23.0137 38.4188 22.7688 36.8625L22.0025 31.9921C21.8415 30.9679 22.2624 29.9529 23.1006 29.343L27.086 26.4443C28.3617 25.5162 29.2689 24.1607 29.6399 22.6274L30.8005 17.8321C31.0439 16.8268 31.8194 16.051 32.8249 15.8076L37.6203 14.6473C39.1538 14.2763 40.5096 13.369 41.4374 12.0932L44.3354 8.10897C44.9452 7.27051 45.96 6.84935 46.9847 7.01089L51.8536 7.77717C53.4104 8.02251 55.0086 7.70524 56.3537 6.88495L60.5695 4.31413C61.4518 3.77647 62.5484 3.77647 63.4302 4.31413L67.647 6.88519C68.9921 7.70573 70.5905 8.02275 72.1466 7.77765L77.0172 7.01137C78.0412 6.8508 79.0564 7.27124 79.6663 8.10945L82.565 12.0947C83.4931 13.3703 84.8486 14.2775 86.3819 14.6485L91.1772 15.8091C92.1825 16.0525 92.9583 16.828 93.2017 17.8335L94.362 22.6286C94.733 24.1622 95.64 25.5182 96.9161 26.4462L100.9 29.3443C101.739 29.9541 102.159 30.9693 101.998 31.9935L101.232 36.8625C100.987 38.419 101.304 40.017 102.124 41.3623L104.695 45.5786C105.233 46.4609 105.233 47.5573 104.695 48.4396Z" fill="white"/><path d="M84.8669 40.929C84.4363 39.6033 83.3089 38.6777 81.9246 38.5135L70.1661 37.1192L65.2066 26.3672C64.6227 25.1016 63.394 24.3152 62 24.3152C60.6062 24.3152 59.3773 25.1016 58.7934 26.3672L53.8339 37.1194L42.0754 38.5137C40.6911 38.6779 39.5635 39.6035 39.1331 40.9293C38.7025 42.2543 39.0706 43.666 40.0936 44.6122L48.7869 52.6517L46.4794 64.2655C46.2079 65.6329 46.7397 66.9911 47.8676 67.8102C48.4898 68.2621 49.2117 68.491 49.9383 68.491C50.529 68.491 51.1224 68.3399 51.6675 68.0347L61.9998 62.2515L72.332 68.0347C73.5485 68.7157 75.0043 68.6298 76.1322 67.8104C77.26 66.9911 77.7919 65.6327 77.5201 64.2655L75.2126 52.6519L83.9059 44.6125C84.9294 43.6662 85.2975 42.2548 84.8669 40.929ZM71.7563 50.5252C71.2574 50.9866 71.0341 51.6742 71.1663 52.3407L73.5277 64.2251L62.9542 58.3067C62.6578 58.1409 62.3289 58.0578 61.9998 58.0578C61.6706 58.0578 61.342 58.1406 61.0453 58.3067L50.4718 64.2251L52.8332 52.3407C52.9659 51.6739 52.7424 50.9866 52.2432 50.5252L43.3472 42.2981L55.3805 40.8714C56.0553 40.7915 56.6401 40.3664 56.9249 39.7496L62 28.7467L67.0751 39.7496C67.3599 40.3664 67.9445 40.7915 68.6195 40.8714L80.6524 42.2981L71.7563 50.5252Z" fill="white"/></g><defs><clipPath id="clip0"><rect width="124" height="124" fill="white"/></clipPath></defs></symbol><symbol id="comment" viewBox="0 0 22 22"><path d="M18.4662 1.48245H3.51232C1.94883 1.48245 0.676758 2.75427 0.676758 4.31801V13.4695C0.676758 15.0297 1.94329 16.2995 3.50225 16.305V20.4579L9.47033 16.305H18.4662C20.0297 16.305 21.3018 15.033 21.3018 13.4695V4.31801C21.3018 2.75427 20.0297 1.48245 18.4662 1.48245ZM20.0933 13.4695C20.0933 14.3665 19.3634 15.0965 18.4662 15.0965H9.09116L4.71074 18.1447V15.0965H3.51232C2.61513 15.0965 1.88525 14.3665 1.88525 13.4695V4.31801C1.88525 3.4207 2.61513 2.69095 3.51232 2.69095H18.4662C19.3634 2.69095 20.0933 3.4207 20.0933 4.31801V13.4695Z" fill="white"/><path d="M6.19727 5.75262H15.7819V6.96112H6.19727V5.75262Z" fill="white"/><path d="M6.19727 8.33075H15.7819V9.53924H6.19727V8.33075Z" fill="white"/><path d="M6.19727 10.9089H15.7819V12.1174H6.19727V10.9089Z" fill="white"/></symbol></svg>