<?xml version="1.0" standalone="no"?>
<!DOCTYPE svg PUBLIC "-//W3C//DTD SVG 20010904//EN"
 "http://www.w3.org/TR/2001/REC-SVG-20010904/DTD/svg10.dtd">
<svg version="1.0" xmlns="http://www.w3.org/2000/svg"
 width="260.000000pt" height="260.000000pt" viewBox="0 0 260.000000 260.000000"
 preserveAspectRatio="xMidYMid meet">
<metadata>
Created by potrace 1.11, written by Peter Selinger 2001-2013
</metadata>
<g transform="translate(0.000000,260.000000) scale(0.100000,-0.100000)"
fill="#000000" stroke="none">
<path d="M607 2587 c-3 -8 -26 -22 -53 -32 -26 -10 -75 -34 -108 -53 -34 -19
-76 -43 -94 -53 -46 -24 -203 -161 -272 -236 -32 -35 -63 -63 -69 -63 -7 0
-11 -8 -9 -17 3 -17 27 -18 303 -21 267 -2 301 -4 318 -20 26 -23 46 -64 63
-128 8 -30 21 -65 29 -78 8 -12 22 -47 31 -76 9 -29 24 -69 35 -89 10 -20 19
-42 19 -50 0 -7 11 -39 25 -70 13 -31 40 -99 60 -151 19 -52 44 -115 55 -140
11 -25 24 -64 30 -88 6 -23 19 -57 29 -75 11 -17 22 -48 26 -67 4 -19 20 -62
36 -96 16 -34 29 -69 29 -78 0 -9 7 -27 16 -41 8 -13 24 -50 34 -82 42 -131
76 -217 87 -220 6 -2 15 6 19 19 12 36 5 1140 -8 1155 -7 9 -49 13 -147 13
-93 0 -141 4 -149 12 -8 8 -12 59 -12 164 0 125 3 155 16 168 13 14 61 16 374
16 345 0 360 -1 370 -19 7 -13 10 -279 10 -793 0 -653 -2 -777 -14 -794 -13
-18 -28 -19 -193 -19 -98 0 -203 1 -233 3 -30 1 -139 0 -241 -4 l-186 -6 -31
27 c-24 20 -38 46 -57 109 -17 55 -35 93 -54 111 l-28 29 -266 -1 c-171 -1
-273 -5 -286 -12 -25 -14 -40 -41 -55 -100 -7 -32 -18 -49 -34 -56 -20 -9 -22
-17 -22 -76 0 -62 2 -67 24 -73 13 -3 33 -20 44 -37 23 -37 172 -173 233 -213
24 -16 56 -37 71 -48 62 -42 129 -78 169 -89 23 -7 46 -21 53 -31 10 -17 39
-18 498 -18 329 0 488 3 488 10 0 6 8 13 18 17 195 69 415 231 554 408 113
146 112 144 151 220 70 137 85 170 92 205 4 19 18 69 33 110 26 73 26 80 26
330 0 242 -1 258 -23 315 -13 33 -29 85 -35 115 -22 94 -118 275 -213 399
-114 148 -314 323 -421 368 -20 8 -48 23 -62 32 -14 10 -44 23 -68 30 -24 7
-46 19 -49 27 -8 20 -968 21 -976 1z"/>
<path d="M356 1612 c-3 -5 -10 -39 -16 -77 -6 -37 -17 -80 -25 -96 -8 -15 -20
-52 -26 -81 -6 -29 -22 -76 -36 -105 -15 -33 -25 -73 -26 -110 l-2 -58 165 0
c194 0 188 -5 146 123 -43 132 -64 205 -81 276 -21 93 -76 164 -99 128z"/>
</g>
</svg>
